<svg xmlns="http://www.w3.org/2000/svg" version="1.1" xmlns:xlink="http://www.w3.org/1999/xlink" xmlns:svgjs="http://svgjs.dev/svgjs" width="1500" height="1500" viewBox="0 0 1500 1500"><rect width="1500" height="1500" fill="#ffffff"></rect><g transform="matrix(0.6666666666666666,0,0,0.6666666666666666,249.39393939393938,639.0727594236705)"><svg viewBox="0 0 396 88" data-background-color="#ffffff" preserveAspectRatio="xMidYMid meet" height="333" width="1500" xmlns="http://www.w3.org/2000/svg" xmlns:xlink="http://www.w3.org/1999/xlink"><g id="tight-bounds" transform="matrix(1,0,0,1,0.2400000000000091,-0.028841573346852556)"><svg viewBox="0 0 395.52 88.05768314669369" height="88.05768314669369" width="395.52"><g><svg viewBox="0 0 395.52 88.05768314669369" height="88.05768314669369" width="395.52"><g><svg viewBox="0 0 395.52 88.05768314669369" height="88.05768314669369" width="395.52"><g id="textblocktransform"><svg viewBox="0 0 395.52 88.05768314669369" height="88.05768314669369" width="395.52" id="textblock"><g><rect width="252.73728" height="5.648950795794393" y="79.91834154813306" fill="#f689a0" data-fill-palette-color="tertiary"></rect></g><g><svg viewBox="0 0 395.52 62.640121437004545" height="62.640121437004545" width="395.52"><g transform="matrix(1,0,0,1,0,0)"><svg width="395.52" viewBox="-0.1 -33.5 296.42 46.95" height="62.640121437004545" data-palette-color="#f689a0"><path d="M58.65 11.45L58.65 11.45Q57.4 11.45 55.98 10.83 54.55 10.2 53.63 8.97 52.7 7.75 52.8 6L52.8 6Q52.85 4.95 53.03 3.93 53.2 2.9 53.83 1.45 54.45 0 55.83-2.33 57.2-4.65 59.68-8.25 62.15-11.85 66-17.25L66-17.25Q67.85-19.8 68.6-21.45 69.35-23.1 69.35-24.05L69.35-24.05Q69.35-24.85 68.9-25.2 68.45-25.55 67.75-25.55L67.75-25.55Q66.75-25.55 65.38-24.95 64-24.35 62.75-23.4L62.75-23.4Q60.4-21.65 57.95-19.43 55.5-17.2 53.2-14.85 50.9-12.5 48.9-10.3L48.9-10.3Q47.25-7.65 45.8-5.48 44.35-3.3 43.7-2.35L43.7-2.35Q43.5-2 43.08-1.85 42.65-1.7 42.25-1.7L42.25-1.7Q41.55-1.7 41-2.08 40.45-2.45 40.75-3L40.75-3Q40.75-3 41.35-4.05 41.95-5.1 42.93-6.85 43.9-8.6 45.03-10.7 46.15-12.8 47.2-14.88 48.25-16.95 49.03-18.7 49.8-20.45 50.05-21.45L50.05-21.45Q50.35-22.75 50.35-23.85L50.35-23.85Q50.35-24.95 49.95-25.63 49.55-26.3 48.55-26.3L48.55-26.3Q47.9-26.3 46.9-25.9 45.9-25.5 44.55-24.65L44.55-24.65Q42.25-23.15 39.38-20.73 36.5-18.3 33.43-15.33 30.35-12.35 27.33-9.22 24.3-6.1 21.7-3.15L21.7-3.15Q21.55-3 21.35-3L21.35-3Q19.45-0.55 18.53 0.2 17.6 0.95 17.6 0.5L17.6 0.5Q17.6-0.5 20.35-3.95L20.35-3.95Q22.5-6.6 24.98-9.58 27.45-12.55 29.63-15.5 31.8-18.45 33.1-21L33.1-21Q34.4-23.55 34.4-25.3L34.4-25.3Q34.4-27.65 32.48-28.55 30.55-29.45 27.6-29.45L27.6-29.45Q25.25-29.45 22.58-29.03 19.9-28.6 17.28-27.98 14.65-27.35 12.45-26.68 10.25-26 8.9-25.55L8.9-25.55Q6.7-24.8 4.85-23.95 3-23.1 1.93-22.23 0.85-21.35 0.85-20.45L0.85-20.45Q0.85-19.6 2-18.8L2-18.8Q2.1-18.75 2.1-18.65L2.1-18.65Q2.1-18.55 1.85-18.55L1.85-18.55Q1.6-18.55 1.35-18.7L1.35-18.7Q-0.1-19.7-0.1-21.6L-0.1-21.6Q-0.1-23 0.85-24.55 1.8-26.1 3.8-27.2L3.8-27.2Q6.35-28.65 9.5-29.83 12.65-31 16-31.83 19.35-32.65 22.63-33.08 25.9-33.5 28.7-33.5L28.7-33.5Q32.4-33.5 34.52-32.75 36.65-32 37.55-30.7 38.45-29.4 38.45-27.8L38.45-27.8Q38.45-25.65 37.18-23.25 35.9-20.85 34.35-18.95L34.35-18.95Q32.95-17.25 30.78-14.7 28.6-12.15 26.5-9.55L26.5-9.55Q29.55-12.75 32.7-15.8 35.85-18.85 38.8-21.35 41.75-23.85 44.1-25.4L44.1-25.4Q46.65-27.05 48.58-27.78 50.5-28.5 51.85-28.5L51.85-28.5Q53.75-28.5 54.58-27.35 55.4-26.2 55.4-24.5L55.4-24.5Q55.4-22.7 54.55-20.6L54.55-20.6Q54-19.25 53.1-17.53 52.2-15.8 51.1-13.95L51.1-13.95Q53.7-16.65 56.63-19.35 59.55-22.05 62.3-24.1L62.3-24.1Q64.7-25.85 67.35-27 70-28.15 71.85-28.15L71.85-28.15Q72.95-28.15 73.6-27.68 74.25-27.2 74.25-26.15L74.25-26.15Q74.25-25.25 73.65-23.85 73.05-22.45 71.75-20.5L71.75-20.5Q66.65-12.95 63.48-7.53 60.3-2.1 58.8 1.5 57.3 5.1 57.1 7.25L57.1 7.25Q57.05 7.5 57.05 7.75 57.05 8 57.05 8.25L57.05 8.25Q57.05 9.65 57.53 10.23 58 10.8 58.6 10.8L58.6 10.8Q59.35 10.8 60 10.25L60 10.25Q60.2 10.15 60.25 10.15L60.25 10.15Q60.5 10.15 60.65 10.4 60.8 10.65 60.55 10.9L60.55 10.9Q59.85 11.45 58.65 11.45ZM68.95 0.05L68.95 0.05Q67.4 0.05 66.55-0.93 65.7-1.9 65.7-3.45L65.7-3.45Q65.7-4.9 66.47-6.65 67.25-8.4 68.95-10.2L68.95-10.2Q70.7-12.1 73.3-13.28 75.9-14.45 78.25-14.45L78.25-14.45Q80.15-14.45 81.5-13.63 82.85-12.8 83.3-11.55L83.3-11.55Q83.85-11.55 84.67-11.25 85.5-10.95 85.5-10.15L85.5-10.15Q85.5-9.6 84.95-8.9L84.95-8.9Q84.6-8.4 83.72-7.4 82.85-6.4 82.1-5.25L82.1-5.25Q81.5-4.35 81.15-3.58 80.8-2.8 80.8-2.25L80.8-2.25Q80.8-1.5 81.55-1.5L81.55-1.5Q82.4-1.5 84.1-2.45L84.1-2.45Q85.95-3.5 87.65-4.85 89.35-6.2 90.3-7L90.3-7Q90.55-7.2 90.65-7.2L90.65-7.2Q90.85-7.2 90.85-6.95L90.85-6.95Q90.85-6.65 90.6-6.4L90.6-6.4Q90.15-6 88.85-4.9 87.55-3.8 85.87-2.6 84.2-1.4 82.6-0.65L82.6-0.65Q81.8-0.3 81.12-0.13 80.45 0.05 79.9 0.05L79.9 0.05Q78.55 0.05 77.85-0.73 77.15-1.5 77.15-2.75L77.15-2.75Q77.15-3.25 77.3-3.8 77.45-4.35 77.65-4.9L77.65-4.9 78-5.75Q76.7-4.15 75.4-3.08 74.1-2 72.8-1.2L72.8-1.2Q71.7-0.55 70.72-0.25 69.75 0.05 68.95 0.05ZM70.5-1.25L70.5-1.25Q71.4-1.25 73.1-2.33 74.8-3.4 77.05-5.65L77.05-5.65Q77.35-5.95 78.17-6.73 79-7.5 79.95-8.47 80.9-9.45 81.57-10.43 82.25-11.4 82.25-12.05L82.25-12.05Q82.25-13 80.6-13L80.6-13Q79.15-13 77.12-11.88 75.1-10.75 73.25-8.55L73.25-8.55Q71.35-6.3 70.47-4.67 69.6-3.05 69.6-2.2L69.6-2.2Q69.6-1.25 70.5-1.25ZM96.84-15.3L96.84-15.3Q96.15-15.3 95.8-15.75 95.45-16.2 95.45-16.7L95.45-16.7Q95.45-17.7 96.4-18.68 97.34-19.65 98.4-19.65L98.4-19.65Q99.09-19.65 99.45-19.2 99.8-18.75 99.8-18.25L99.8-18.25Q99.8-17.2 98.87-16.25 97.95-15.3 96.84-15.3ZM72.9 13.45L72.9 13.45Q70.5 13.45 68.3 12.75 66.09 12.05 64.7 10.48 63.3 8.9 63.3 6.3L63.3 6.3 63.3 6.2Q63.3 5.9 63.5 5.9L63.5 5.9Q63.7 5.9 63.8 6.25L63.8 6.25Q64.34 9.05 66.5 10.8 68.65 12.55 71.45 12.55L71.45 12.55Q73.2 12.55 75.3 11.58 77.4 10.6 79.55 8.9 81.7 7.2 83.75 5.05 85.8 2.9 87.5 0.55L87.5 0.55Q88.09-0.25 89.15-1.83 90.2-3.4 91.32-5.3 92.45-7.2 93.2-8.9L93.2-8.9Q92.95-8.65 92.4-8.13 91.84-7.6 91.34-7.1 90.84-6.6 90.55-6.35L90.55-6.35Q90.5-6.3 90.47-6.3 90.45-6.3 90.45-6.3L90.45-6.3Q90.2-6.3 90.2-6.65L90.2-6.65Q90.2-6.9 90.45-7.1L90.45-7.1Q90.84-7.45 91.72-8.33 92.59-9.2 93.34-10.3 94.09-11.4 94.09-12.3L94.09-12.3Q94.09-12.9 93.5-13.15L93.5-13.15Q93.4-13.2 93.4-13.3L93.4-13.3Q93.4-13.65 93.8-13.65L93.8-13.65Q94.8-13.65 95.34-12.93 95.9-12.2 95.9-10.95L95.9-10.95Q95.9-9.55 95.3-7.63 94.7-5.7 93.7-3.6 92.7-1.5 91.55 0.5 90.4 2.5 89.32 4.08 88.25 5.65 87.45 6.5L87.45 6.5Q85.7 8.35 83.3 9.95 80.9 11.55 78.22 12.5 75.55 13.45 72.9 13.45ZM100.69 0.05L100.69 0.05Q99.14 0.05 98.29-0.93 97.44-1.9 97.44-3.45L97.44-3.45Q97.44-4.9 98.22-6.65 98.99-8.4 100.69-10.2L100.69-10.2Q102.44-12.1 105.04-13.28 107.64-14.45 109.99-14.45L109.99-14.45Q111.89-14.45 113.24-13.63 114.59-12.8 115.04-11.55L115.04-11.55Q115.59-11.55 116.42-11.25 117.24-10.95 117.24-10.15L117.24-10.15Q117.24-9.6 116.69-8.9L116.69-8.9Q116.34-8.4 115.47-7.4 114.59-6.4 113.84-5.25L113.84-5.25Q113.24-4.35 112.89-3.58 112.54-2.8 112.54-2.25L112.54-2.25Q112.54-1.5 113.29-1.5L113.29-1.5Q114.14-1.5 115.84-2.45L115.84-2.45Q117.69-3.5 119.39-4.85 121.09-6.2 122.04-7L122.04-7Q122.29-7.2 122.39-7.2L122.39-7.2Q122.59-7.2 122.59-6.95L122.59-6.95Q122.59-6.65 122.34-6.4L122.34-6.4Q121.89-6 120.59-4.9 119.29-3.8 117.62-2.6 115.94-1.4 114.34-0.65L114.34-0.65Q113.54-0.3 112.87-0.13 112.19 0.05 111.64 0.05L111.64 0.05Q110.29 0.05 109.59-0.73 108.89-1.5 108.89-2.75L108.89-2.75Q108.89-3.25 109.04-3.8 109.19-4.35 109.39-4.9L109.39-4.9 109.74-5.75Q108.44-4.15 107.14-3.08 105.84-2 104.54-1.2L104.54-1.2Q103.44-0.55 102.47-0.25 101.49 0.05 100.69 0.05ZM102.24-1.25L102.24-1.25Q103.14-1.25 104.84-2.33 106.54-3.4 108.79-5.65L108.79-5.65Q109.09-5.95 109.92-6.73 110.74-7.5 111.69-8.47 112.64-9.45 113.32-10.43 113.99-11.4 113.99-12.05L113.99-12.05Q113.99-13 112.34-13L112.34-13Q110.89-13 108.87-11.88 106.84-10.75 104.99-8.55L104.99-8.55Q103.09-6.3 102.22-4.67 101.34-3.05 101.34-2.2L101.34-2.2Q101.34-1.25 102.24-1.25ZM156.34 4.15L156.34 4.15Q155.19 4.15 154.71 3.38 154.24 2.6 154.24 1.65L154.24 1.65Q154.24 0.4 154.84-0.7L154.84-0.7Q156.14-3.1 158.09-5.73 160.04-8.35 162.16-10.98 164.29-13.6 166.04-15.95L166.04-15.95Q164.84-16.1 163.49-16.1L163.49-16.1Q160.09-16.1 156.09-15.25L156.09-15.25Q154.84-15 153.76-14.68 152.69-14.35 151.84-14.35L151.84-14.35Q151.29-14.35 150.94-14.55L150.94-14.55Q150.79-14.65 150.56-14.93 150.34-15.2 150.34-15.6L150.34-15.6Q150.34-16.15 151.24-16.88 152.14-17.6 154.79-18.1L154.79-18.1Q156.54-18.4 158.99-18.4L158.99-18.4Q161.04-18.4 163.21-18.15 165.39-17.9 167.09-17.35L167.09-17.35Q168.99-20 169.84-21.98 170.69-23.95 170.69-25.35L170.69-25.35Q170.69-27.6 168.81-28.5 166.94-29.4 164.04-29.4L164.04-29.4Q162.19-29.4 160.06-29.13 157.94-28.85 155.74-28.35L155.74-28.35Q155.29-28.25 153.74-27.88 152.19-27.5 150.06-26.93 147.94-26.35 145.69-25.6 143.44-24.85 141.46-24 139.49-23.15 138.26-22.23 137.04-21.3 137.04-20.35L137.04-20.35Q137.04-19.55 138.14-18.8L138.14-18.8Q138.24-18.7 138.24-18.65L138.24-18.65Q138.24-18.55 137.99-18.55L137.99-18.55Q137.69-18.55 137.44-18.7L137.44-18.7Q135.99-19.7 135.99-21.6L135.99-21.6Q135.99-23 136.94-24.55 137.89-26.1 139.89-27.2L139.89-27.2Q142.44-28.65 145.59-29.83 148.74-31 152.11-31.83 155.49-32.65 158.74-33.08 161.99-33.5 164.79-33.5L164.79-33.5Q168.49-33.5 170.61-32.75 172.74-32 173.64-30.7 174.54-29.4 174.54-27.8L174.54-27.8Q174.54-25.65 173.26-23.25 171.99-20.85 170.44-18.95L170.44-18.95Q170.04-18.45 169.59-17.9 169.14-17.35 168.59-16.75L168.59-16.75Q169.34-16.35 169.94-15.75L169.94-15.75Q170.29-15.3 170.29-15L170.29-15Q170.29-14.65 169.89-14.65L169.89-14.65Q169.59-14.65 169.19-14.9L169.19-14.9Q168.84-15.15 168.46-15.3 168.09-15.45 167.64-15.6L167.64-15.6Q166.24-13.9 164.64-12.03 163.04-10.15 161.59-8.35 160.14-6.55 158.99-5L158.99-5Q158.34-4.1 157.54-3 156.74-1.9 156.16-0.7 155.59 0.5 155.59 1.75L155.59 1.75Q155.59 2.45 155.84 3 156.09 3.55 156.84 3.55L156.84 3.55Q157.19 3.55 157.64 3.4L157.64 3.4 157.84 3.35Q158.04 3.35 158.04 3.5L158.04 3.5Q158.04 3.75 157.64 3.9L157.64 3.9Q156.79 4.15 156.34 4.15ZM175.99 0.05L175.99 0.05Q173.84 0.05 173.09-0.78 172.34-1.6 172.34-2.6L172.34-2.6Q172.34-3.9 173.34-5.35L173.34-5.35Q173.94-6.2 174.69-7.28 175.44-8.35 176.09-9.3 176.74-10.25 176.99-10.65L176.99-10.65Q177.34-11.15 177.41-11.33 177.49-11.5 177.49-11.7L177.49-11.7Q177.49-12 177.11-12.28 176.74-12.55 175.89-12.55L175.89-12.55Q175.64-12.55 175.46-12.53 175.29-12.5 175.09-12.5L175.09-12.5Q174.69-12.5 174.64-12.55L174.64-12.55 174.49-12.35Q173.09-10.5 171.49-8.72 169.89-6.95 167.99-5.45L167.99-5.45Q167.79-5.3 167.69-5.3L167.69-5.3Q167.49-5.3 167.49-5.5L167.49-5.5Q167.49-5.9 168.09-6.4L168.09-6.4Q169.64-7.7 171.14-9.33 172.64-10.95 173.84-12.75L173.84-12.75Q173.39-13.05 173.39-13.95L173.39-13.95Q173.39-15.3 174.24-16.85L174.24-16.85Q174.84-17.9 175.56-18.43 176.29-18.95 176.84-18.95L176.84-18.95Q177.89-18.95 177.89-17.7L177.89-17.7Q177.89-16.9 177.29-15.7L177.29-15.7Q177.04-15.1 176.31-14.18 175.59-13.25 174.89-12.85L174.89-12.85Q175.94-13.2 177.56-13.33 179.19-13.45 180.29-13.45L180.29-13.45Q180.94-13.45 181.89-13.08 182.84-12.7 182.84-11.75L182.84-11.75Q182.84-11.1 182.24-10.35L182.24-10.35Q182.09-10.15 181.44-9.4 180.79-8.65 180.01-7.6 179.24-6.55 178.59-5.5L178.59-5.5Q177.94-4.55 177.56-3.75 177.19-2.95 177.19-2.4L177.19-2.4Q177.19-1.6 178.09-1.6L178.09-1.6Q179.14-1.6 180.89-2.6 182.64-3.6 184.66-5.18 186.69-6.75 188.39-8.45L188.39-8.45Q188.59-8.65 188.74-8.65L188.74-8.65Q188.94-8.65 188.94-8.4L188.94-8.4Q188.94-8.1 188.69-7.85L188.69-7.85Q186.94-6.1 184.81-4.28 182.69-2.45 180.41-1.2 178.14 0.05 175.99 0.05ZM189.28 0.05L189.28 0.05Q187.73 0.05 186.88-0.93 186.03-1.9 186.03-3.45L186.03-3.45Q186.03-4.9 186.81-6.65 187.58-8.4 189.28-10.2L189.28-10.2Q191.03-12.1 193.63-13.28 196.23-14.45 198.58-14.45L198.58-14.45Q200.48-14.45 201.83-13.63 203.18-12.8 203.63-11.55L203.63-11.55Q204.18-11.55 205.01-11.25 205.83-10.95 205.83-10.15L205.83-10.15Q205.83-9.6 205.28-8.9L205.28-8.9Q204.93-8.4 204.06-7.4 203.18-6.4 202.43-5.25L202.43-5.25Q201.83-4.35 201.48-3.58 201.13-2.8 201.13-2.25L201.13-2.25Q201.13-1.5 201.88-1.5L201.88-1.5Q202.73-1.5 204.43-2.45L204.43-2.45Q206.28-3.5 207.98-4.85 209.68-6.2 210.63-7L210.63-7Q210.88-7.2 210.98-7.2L210.98-7.2Q211.18-7.2 211.18-6.95L211.18-6.95Q211.18-6.65 210.93-6.4L210.93-6.4Q210.48-6 209.18-4.9 207.88-3.8 206.21-2.6 204.53-1.4 202.93-0.65L202.93-0.65Q202.13-0.3 201.46-0.13 200.78 0.05 200.23 0.05L200.23 0.05Q198.88 0.05 198.18-0.73 197.48-1.5 197.48-2.75L197.48-2.75Q197.48-3.25 197.63-3.8 197.78-4.35 197.98-4.9L197.98-4.9 198.33-5.75Q197.03-4.15 195.73-3.08 194.43-2 193.13-1.2L193.13-1.2Q192.03-0.55 191.06-0.25 190.08 0.05 189.28 0.05ZM190.83-1.25L190.83-1.25Q191.73-1.25 193.43-2.33 195.13-3.4 197.38-5.65L197.38-5.65Q197.68-5.95 198.51-6.73 199.33-7.5 200.28-8.47 201.23-9.45 201.91-10.43 202.58-11.4 202.58-12.05L202.58-12.05Q202.58-13 200.93-13L200.93-13Q199.48-13 197.46-11.88 195.43-10.75 193.58-8.55L193.58-8.55Q191.68-6.3 190.81-4.67 189.93-3.05 189.93-2.2L189.93-2.2Q189.93-1.25 190.83-1.25ZM210.08 0.25L210.08 0.25Q209.58 0.25 208.88 0.03 208.18-0.2 207.48-0.8L207.48-0.8Q208.03-1.55 209.06-2.83 210.08-4.1 211.23-5.65 212.38-7.2 213.38-8.75L213.38-8.75Q212.58-7.95 211.63-7.05 210.68-6.15 209.73-5.4L209.73-5.4Q209.53-5.2 209.28-5.2L209.28-5.2Q209.08-5.2 209.08-5.4L209.08-5.4Q209.08-5.65 209.48-6L209.48-6Q210.88-7.25 212.61-8.88 214.33-10.5 215.13-12.2L215.13-12.2Q215.38-12.8 215.38-13.3L215.38-13.3Q215.38-13.95 215.13-14.1L215.13-14.1Q214.93-14.25 214.93-14.5L214.93-14.5Q214.93-14.95 215.38-14.95L215.38-14.95Q215.63-14.95 215.78-14.85L215.78-14.85Q216.33-14.6 216.83-13.9 217.33-13.2 217.33-11.8L217.33-11.8Q217.33-11 217.13-9.98 216.93-8.95 216.43-7.65L216.43-7.65Q217.18-8.65 217.96-9.6 218.73-10.55 219.38-11.3L219.38-11.3Q220.73-12.85 222.11-13.53 223.48-14.2 224.58-14.2L224.58-14.2Q225.88-14.2 226.68-13.45 227.48-12.7 227.48-11.5L227.48-11.5Q227.48-10.55 226.98-9.55L226.98-9.55Q226.83-9.15 226.28-8.33 225.73-7.5 225.08-6.55 224.43-5.6 223.88-4.85L223.88-4.85Q223.23-4.05 222.98-3.48 222.73-2.9 222.73-2.55L222.73-2.55Q222.73-2.05 223.28-2.05L223.28-2.05Q223.98-2.05 225.23-2.8L225.23-2.8Q225.98-3.25 226.96-4.03 227.93-4.8 228.91-5.63 229.88-6.45 230.48-7L230.48-7Q230.68-7.2 230.83-7.2L230.83-7.2Q231.03-7.2 231.03-6.95L231.03-6.95Q231.03-6.65 230.78-6.4L230.78-6.4Q229.28-5 227.31-3.35 225.33-1.7 223.43-0.8L223.43-0.8Q221.88-0.05 220.58-0.05L220.58-0.05Q219.48-0.05 218.83-0.63 218.18-1.2 218.18-2.3L218.18-2.3Q218.18-3.1 218.58-4.2L218.58-4.2Q219.08-5.55 220.01-6.9 220.93-8.25 221.96-9.47 222.98-10.7 223.73-11.55L223.73-11.55Q224.38-12.25 224.38-12.75L224.38-12.75Q224.38-13.2 223.78-13.2L223.78-13.2Q223.18-13.2 222.01-12.53 220.83-11.85 219.38-10.35L219.38-10.35Q217.33-8.2 215.78-5.7 214.23-3.2 212.23-1L212.23-1Q211.13 0.25 210.08 0.25ZM232.03 3.95L232.03 3.95Q230.93 2.95 230.55 2.13 230.18 1.3 230.18-0.15L230.18-0.15Q230.18-1.65 230.6-3.5 231.03-5.35 231.83-7.35L231.83-7.35Q231.33-6.85 230.78-6.35 230.23-5.85 229.68-5.45L229.68-5.45Q229.53-5.3 229.38-5.3L229.38-5.3Q229.23-5.3 229.23-5.45L229.23-5.45Q229.23-5.8 229.83-6.4L229.83-6.4Q230.63-7.1 231.33-7.95 232.03-8.8 232.88-9.85L232.88-9.85Q235.38-15.4 238.48-19.85 241.58-24.3 245.98-28.4L245.98-28.4Q248.23-30.45 250.2-31.35 252.18-32.25 253.68-32.25L253.68-32.25Q255.18-32.25 256.03-31.45 256.88-30.65 256.88-29.35L256.88-29.35Q256.88-28.1 256.05-26.5 255.23-24.9 253.38-23.15L253.38-23.15Q252.08-21.9 250.28-20.58 248.48-19.25 246.58-18.1 244.68-16.95 243.03-16.2L243.03-16.2Q242.93-16.15 242.83-16.13 242.73-16.1 242.63-16.1L242.63-16.1Q242.28-16.1 242.28-16.35L242.28-16.35Q242.28-16.65 242.83-16.85L242.83-16.85Q244.38-17.55 246.25-18.75 248.13-19.95 249.88-21.35 251.63-22.75 252.83-24L252.83-24Q254.33-25.6 255-26.73 255.68-27.85 255.68-28.45L255.68-28.45Q255.68-29.2 254.83-29.2L254.83-29.2Q253.93-29.2 252.25-28.28 250.58-27.35 248.43-25.45L248.43-25.45Q245.78-23.1 243.2-20.05 240.63-17 238.5-14.03 236.38-11.05 234.98-8.75L234.98-8.75Q236.93-11.35 238.78-12.8 240.63-14.25 242.18-14.9L242.18-14.9Q243.48-15.4 244.63-15.4L244.63-15.4Q245.93-15.4 246.73-14.75 247.53-14.1 247.53-13.1L247.53-13.1Q247.53-12.1 246.85-10.85 246.18-9.6 244.58-8.4L244.58-8.4Q243.33-7.5 241.25-6.83 239.18-6.15 237.38-6.15L237.38-6.15Q236.33-6.15 235.58-6.45L235.58-6.45Q236.58-5.2 238.08-4.03 239.58-2.85 241.15-2.13 242.73-1.4 243.93-1.4L243.93-1.4Q244.78-1.4 245.48-1.85 246.18-2.3 246.18-2.95L246.18-2.95Q246.18-3.05 246.3-3.05 246.43-3.05 246.43-2.95L246.43-2.95Q246.43-2 245.65-1.4 244.88-0.8 243.78-0.55L243.78-0.55Q243.28-0.45 242.75-0.38 242.23-0.3 241.68-0.3L241.68-0.3Q239.63-0.3 237.85-1.03 236.08-1.75 234.8-2.83 233.53-3.9 232.98-4.9L232.98-4.9Q232.33-3.3 232-1.73 231.68-0.15 231.68 1.15L231.68 1.15Q231.68 2.9 232.28 3.65L232.28 3.65Q232.43 3.85 232.28 3.93 232.13 4 232.03 3.95ZM236.43-6.7L236.43-6.7Q237.68-6.7 239.4-7.3 241.13-7.9 242.23-8.75L242.23-8.75Q243.13-9.45 243.55-10.25 243.98-11.05 243.98-11.7L243.98-11.7Q243.98-12.4 243.55-12.88 243.13-13.35 242.33-13.35L242.33-13.35Q241.53-13.35 240.43-12.83 239.33-12.3 237.88-11L237.88-11Q237.08-10.25 236.25-9.45 235.43-8.65 234.73-7.8L234.73-7.8Q234.83-7.55 234.98-7.28 235.13-7 235.33-6.9L235.33-6.9Q235.53-6.8 235.83-6.75 236.13-6.7 236.43-6.7ZM251.78 0.25L251.78 0.25Q249.78 0.25 248.98-0.73 248.18-1.7 248.18-3L248.18-3Q248.18-4.25 248.65-5.65 249.13-7.05 249.73-8.3L249.73-8.3Q249.08-7.6 248.48-7.03 247.88-6.45 247.48-6.1L247.48-6.1Q247.28-5.95 247.08-5.95L247.08-5.95Q246.83-5.95 246.83-6.2L246.83-6.2Q246.83-6.45 247.13-6.65L247.13-6.65Q248.18-7.55 249.58-9.1 250.98-10.65 252.18-12.25L252.18-12.25Q253.18-13.55 254.58-15.5 255.98-17.45 257.43-19.63 258.88-21.8 259.93-23.6L259.93-23.6Q260.08-23.9 260.25-24.35 260.43-24.8 260.43-25.15L260.43-25.15Q260.43-25.65 260.03-25.65L260.03-25.65Q259.93-25.65 259.45-25.45 258.98-25.25 258.53-25.05 258.08-24.85 257.98-24.85L257.98-24.85Q257.58-24.85 258.03-25.3L258.03-25.3Q258.83-25.9 260.05-26.48 261.28-27.05 262.58-27.45 263.88-27.85 264.78-27.85L264.78-27.85Q266.88-27.85 266.88-26.5L266.88-26.5Q266.88-25.8 266.23-24.65L266.23-24.65Q265.68-23.75 264.63-22.53 263.58-21.3 262.3-19.93 261.03-18.55 259.83-17.23 258.63-15.9 257.83-14.9L257.83-14.9Q257.63-14.65 256.85-13.6 256.08-12.55 255.1-11.08 254.13-9.6 253.15-7.98 252.18-6.35 251.55-4.88 250.93-3.4 250.93-2.4L250.93-2.4Q250.93-1.05 252.23-1.05L252.23-1.05Q253.08-1.05 254.38-1.55L254.38-1.55Q255.63-2 257-2.93 258.38-3.85 259.7-4.9 261.03-5.95 262.05-6.9 263.08-7.85 263.58-8.35L263.58-8.35Q263.88-8.65 264.08-8.65L264.08-8.65Q264.28-8.65 264.28-8.4L264.28-8.4Q264.28-8.15 264.03-7.9L264.03-7.9Q263.23-7.05 261.85-5.7 260.48-4.35 258.8-2.98 257.13-1.6 255.33-0.68 253.53 0.25 251.78 0.25ZM273.02-15.3L273.02-15.3Q272.32-15.3 271.97-15.75 271.62-16.2 271.62-16.7L271.62-16.7Q271.62-17.7 272.57-18.68 273.52-19.65 274.57-19.65L274.57-19.65Q275.27-19.65 275.62-19.2 275.97-18.75 275.97-18.25L275.97-18.25Q275.97-17.2 275.05-16.25 274.12-15.3 273.02-15.3ZM265.37 0.05L265.37 0.05Q263.32 0.05 262.6-0.83 261.87-1.7 261.87-2.8L261.87-2.8Q261.87-3.7 262.17-4.53 262.47-5.35 262.67-5.7L262.67-5.7Q262.97-6.2 263.5-6.85 264.02-7.5 264.67-8.25L264.67-8.25Q263.67-7.4 262.8-6.6 261.92-5.8 261.37-5.4L261.37-5.4Q261.22-5.25 261.07-5.25L261.07-5.25Q260.87-5.25 260.87-5.5L260.87-5.5Q260.87-5.9 261.42-6.3L261.42-6.3Q262.72-7.4 263.95-8.7 265.17-10 266.27-11.13 267.37-12.25 268.22-12.7L268.22-12.7Q269.12-13.2 269.67-13.35 270.22-13.5 270.57-13.5L270.57-13.5Q271.12-13.5 271.37-13.33 271.62-13.15 271.47-12.95L271.47-12.95Q270.62-12.1 269.8-10.78 268.97-9.45 268.27-8 267.57-6.55 267.15-5.25 266.72-3.95 266.72-3.05L266.72-3.05Q266.72-1.8 267.72-1.8L267.72-1.8Q268.67-1.8 270.2-2.68 271.72-3.55 273.4-4.9 275.07-6.25 276.52-7.55L276.52-7.55Q276.72-7.75 276.87-7.75L276.87-7.75Q277.12-7.75 277.15-7.5 277.17-7.25 277.02-7.15L277.02-7.15Q275.37-5.6 273.3-3.93 271.22-2.25 269.15-1.1 267.07 0.05 265.37 0.05ZM275.37 0.25L275.37 0.25Q274.87 0.25 274.17 0.03 273.47-0.2 272.77-0.8L272.77-0.8Q273.32-1.55 274.35-2.83 275.37-4.1 276.52-5.65 277.67-7.2 278.67-8.75L278.67-8.75Q277.87-7.95 276.92-7.05 275.97-6.15 275.02-5.4L275.02-5.4Q274.82-5.2 274.57-5.2L274.57-5.2Q274.37-5.2 274.37-5.4L274.37-5.4Q274.37-5.65 274.77-6L274.77-6Q276.17-7.25 277.9-8.88 279.62-10.5 280.42-12.2L280.42-12.2Q280.67-12.8 280.67-13.3L280.67-13.3Q280.67-13.95 280.42-14.1L280.42-14.1Q280.22-14.25 280.22-14.5L280.22-14.5Q280.22-14.95 280.67-14.95L280.67-14.95Q280.92-14.95 281.07-14.85L281.07-14.85Q281.62-14.6 282.12-13.9 282.62-13.2 282.62-11.8L282.62-11.8Q282.62-11 282.42-9.98 282.22-8.95 281.72-7.65L281.72-7.65Q282.47-8.65 283.25-9.6 284.02-10.55 284.67-11.3L284.67-11.3Q286.02-12.85 287.4-13.53 288.77-14.2 289.87-14.2L289.87-14.2Q291.17-14.2 291.97-13.45 292.77-12.7 292.77-11.5L292.77-11.5Q292.77-10.55 292.27-9.55L292.27-9.55Q292.12-9.15 291.57-8.33 291.02-7.5 290.37-6.55 289.72-5.6 289.17-4.85L289.17-4.85Q288.52-4.05 288.27-3.48 288.02-2.9 288.02-2.55L288.02-2.55Q288.02-2.05 288.57-2.05L288.57-2.05Q289.27-2.05 290.52-2.8L290.52-2.8Q291.27-3.25 292.25-4.03 293.22-4.8 294.2-5.63 295.17-6.45 295.77-7L295.77-7Q295.97-7.2 296.12-7.2L296.12-7.2Q296.32-7.2 296.32-6.95L296.32-6.95Q296.32-6.65 296.07-6.4L296.07-6.4Q294.57-5 292.6-3.35 290.62-1.7 288.72-0.8L288.72-0.8Q287.17-0.05 285.87-0.05L285.87-0.05Q284.77-0.05 284.12-0.63 283.47-1.2 283.47-2.3L283.47-2.3Q283.47-3.1 283.87-4.2L283.87-4.2Q284.37-5.55 285.3-6.9 286.22-8.25 287.25-9.47 288.27-10.7 289.02-11.55L289.02-11.55Q289.67-12.25 289.67-12.75L289.67-12.75Q289.67-13.2 289.07-13.2L289.07-13.2Q288.47-13.2 287.3-12.53 286.12-11.85 284.67-10.35L284.67-10.35Q282.62-8.2 281.07-5.7 279.52-3.2 277.52-1L277.52-1Q276.42 0.25 275.37 0.25Z" opacity="1" transform="matrix(1,0,0,1,0,0)" fill="#f689a0" class="wordmark-text-0" data-fill-palette-color="primary" id="text-0"></path></svg></g></svg></g><g transform="matrix(1,0,0,1,252.73728,77.42795074536683)"><svg viewBox="0 0 142.78271999999998 10.629732401326859" height="10.629732401326859" width="142.78271999999998"><g transform="matrix(1,0,0,1,8,0)"><svg width="126.78271999999998" viewBox="4.35 -36.83 519.97 43.61" height="10.629732401326859" data-palette-color="#f689a0"><path d="M35.4-17.9L35.4-17.9Q35.4-13.88 34.13-10.58 32.85-7.28 30.53-4.93 28.2-2.58 24.95-1.29 21.7 0 17.75 0L17.75 0 4.35 0 4.35-35.83 17.75-35.83Q21.7-35.83 24.95-34.54 28.2-33.25 30.53-30.89 32.85-28.53 34.13-25.23 35.4-21.93 35.4-17.9ZM30.43-17.9L30.43-17.9Q30.43-21.2 29.53-23.8 28.63-26.4 26.98-28.2 25.33-30 22.98-30.95 20.63-31.9 17.75-31.9L17.75-31.9 9.22-31.9 9.22-3.93 17.75-3.93Q20.63-3.93 22.98-4.88 25.33-5.83 26.98-7.61 28.63-9.4 29.53-12 30.43-14.6 30.43-17.9ZM45.75 0L41.3 0 41.3-25.33 43.85-25.33Q44.57-25.33 44.85-25.05 45.12-24.78 45.22-24.1L45.22-24.1 45.52-20.15Q46.82-22.8 48.73-24.29 50.65-25.78 53.22-25.78L53.22-25.78Q54.27-25.78 55.12-25.54 55.97-25.3 56.7-24.88L56.7-24.88 56.12-21.55Q55.95-20.93 55.35-20.93L55.35-20.93Q55-20.93 54.27-21.16 53.55-21.4 52.25-21.4L52.25-21.4Q49.92-21.4 48.36-20.05 46.8-18.7 45.75-16.13L45.75-16.13 45.75 0ZM71.47-25.73L71.47-25.73Q73.75-25.73 75.67-24.96 77.59-24.2 79-22.76 80.4-21.33 81.18-19.21 81.97-17.1 81.97-14.4L81.97-14.4Q81.97-13.35 81.75-13 81.52-12.65 80.9-12.65L80.9-12.65 64.05-12.65Q64.09-10.25 64.7-8.47 65.3-6.7 66.34-5.51 67.4-4.33 68.84-3.74 70.3-3.15 72.09-3.15L72.09-3.15Q73.77-3.15 74.98-3.54 76.2-3.93 77.07-4.38 77.95-4.83 78.53-5.21 79.12-5.6 79.55-5.6L79.55-5.6Q80.09-5.6 80.4-5.18L80.4-5.18 81.65-3.55Q80.82-2.55 79.67-1.81 78.52-1.07 77.21-0.6 75.9-0.13 74.5 0.11 73.09 0.35 71.72 0.35L71.72 0.35Q69.09 0.35 66.88-0.54 64.67-1.43 63.06-3.14 61.45-4.85 60.55-7.38 59.65-9.9 59.65-13.18L59.65-13.18Q59.65-15.83 60.46-18.13 61.27-20.43 62.8-22.11 64.32-23.8 66.52-24.76 68.72-25.73 71.47-25.73ZM71.57-22.45L71.57-22.45Q68.34-22.45 66.5-20.59 64.64-18.73 64.2-15.43L64.2-15.43 77.97-15.43Q77.97-16.98 77.55-18.26 77.12-19.55 76.3-20.49 75.47-21.43 74.28-21.94 73.09-22.45 71.57-22.45ZM106.24-16.2L106.24 0 104.27 0Q103.62 0 103.22-0.2 102.82-0.4 102.69-1.05L102.69-1.05 102.19-3.4Q101.19-2.5 100.24-1.79 99.29-1.07 98.24-0.59 97.19-0.1 96.01 0.15 94.82 0.4 93.37 0.4L93.37 0.4Q91.89 0.4 90.61-0.01 89.32-0.43 88.37-1.25 87.42-2.08 86.86-3.34 86.29-4.6 86.29-6.33L86.29-6.33Q86.29-7.83 87.12-9.21 87.94-10.6 89.78-11.68 91.62-12.75 94.59-13.44 97.57-14.13 101.87-14.23L101.87-14.23 101.87-16.2Q101.87-19.15 100.61-20.66 99.34-22.18 96.87-22.18L96.87-22.18Q95.24-22.18 94.13-21.76 93.02-21.35 92.21-20.84 91.39-20.33 90.81-19.91 90.22-19.5 89.64-19.5L89.64-19.5Q89.19-19.5 88.86-19.74 88.52-19.98 88.32-20.33L88.32-20.33 87.52-21.75Q89.62-23.78 92.04-24.78 94.47-25.78 97.42-25.78L97.42-25.78Q99.54-25.78 101.19-25.08 102.84-24.38 103.97-23.13 105.09-21.88 105.67-20.1 106.24-18.32 106.24-16.2L106.24-16.2ZM94.69-2.73L94.69-2.73Q95.87-2.73 96.84-2.96 97.82-3.2 98.68-3.64 99.54-4.08 100.33-4.7 101.12-5.33 101.87-6.13L101.87-6.13 101.87-11.4Q98.79-11.3 96.64-10.91 94.49-10.53 93.14-9.9 91.79-9.28 91.18-8.43 90.57-7.58 90.57-6.53L90.57-6.53Q90.57-5.53 90.89-4.8 91.22-4.08 91.77-3.61 92.32-3.15 93.07-2.94 93.82-2.73 94.69-2.73ZM117.44 0L112.99 0 112.99-25.33 115.64-25.33Q116.59-25.33 116.84-24.4L116.84-24.4 117.17-21.8Q118.56-23.53 120.3-24.63 122.04-25.73 124.34-25.73L124.34-25.73Q126.92-25.73 128.5-24.3 130.09-22.88 130.79-20.45L130.79-20.45Q131.31-21.83 132.18-22.83 133.04-23.83 134.12-24.48 135.19-25.13 136.4-25.43 137.62-25.73 138.87-25.73L138.87-25.73Q140.87-25.73 142.43-25.09 143.99-24.45 145.08-23.23 146.17-22 146.74-20.21 147.31-18.43 147.31-16.13L147.31-16.13 147.31 0 142.87 0 142.87-16.13Q142.87-19.1 141.56-20.64 140.27-22.18 137.79-22.18L137.79-22.18Q136.69-22.18 135.7-21.79 134.72-21.4 133.97-20.65 133.22-19.9 132.78-18.76 132.34-17.63 132.34-16.13L132.34-16.13 132.34 0 127.89 0 127.89-16.13Q127.89-19.18 126.67-20.68 125.44-22.18 123.09-22.18L123.09-22.18Q121.44-22.18 120.03-21.29 118.62-20.4 117.44-18.88L117.44-18.88 117.44 0ZM152.74-3.08L152.74-3.08Q152.74-3.65 152.95-4.16 153.16-4.67 153.55-5.06 153.94-5.45 154.49-5.68 155.04-5.9 155.69-5.9L155.69-5.9Q156.44-5.9 157.03-5.63 157.61-5.35 158-4.86 158.39-4.38 158.59-3.74 158.79-3.1 158.79-2.35L158.79-2.35Q158.79-1.23 158.46-0.01 158.14 1.2 157.54 2.39 156.94 3.58 156.05 4.7 155.16 5.83 154.04 6.78L154.04 6.78 153.29 6.05Q152.96 5.75 152.96 5.35L152.96 5.35Q152.96 5.03 153.31 4.67L153.31 4.67Q153.56 4.4 153.95 3.94 154.34 3.48 154.74 2.88 155.14 2.27 155.48 1.55 155.81 0.83 155.96 0L155.96 0 155.64 0Q154.99 0 154.46-0.23 153.94-0.45 153.55-0.86 153.16-1.28 152.95-1.84 152.74-2.4 152.74-3.08ZM187.66 0L174.98 0 174.98-35.83 186.41-35.83Q189.71-35.83 192.1-35.18 194.48-34.52 196.02-33.33 197.56-32.13 198.3-30.39 199.03-28.65 199.03-26.48L199.03-26.48Q199.03-25.15 198.62-23.93 198.21-22.7 197.37-21.65 196.53-20.6 195.27-19.78 194.01-18.95 192.31-18.43L192.31-18.43Q196.23-17.65 198.23-15.6 200.23-13.55 200.23-10.2L200.23-10.2Q200.23-7.93 199.4-6.05 198.56-4.17 196.95-2.83 195.33-1.48 193-0.74 190.66 0 187.66 0L187.66 0ZM187.56-16.32L179.83-16.32 179.83-3.85 187.58-3.85Q189.66-3.85 191.15-4.33 192.63-4.8 193.6-5.66 194.56-6.53 195.01-7.71 195.46-8.9 195.46-10.33L195.46-10.33Q195.46-13.1 193.5-14.71 191.53-16.32 187.56-16.32L187.56-16.32ZM179.83-32L179.83-19.78 186.23-19.78Q188.28-19.78 189.78-20.23 191.28-20.68 192.27-21.48 193.26-22.28 193.73-23.41 194.21-24.55 194.21-25.9L194.21-25.9Q194.21-29.05 192.31-30.53 190.41-32 186.41-32L186.41-32 179.83-32ZM216.66-25.73L216.66-25.73Q218.93-25.73 220.86-24.96 222.78-24.2 224.18-22.76 225.58-21.33 226.37-19.21 227.16-17.1 227.16-14.4L227.16-14.4Q227.16-13.35 226.93-13 226.71-12.65 226.08-12.65L226.08-12.65 209.23-12.65Q209.28-10.25 209.88-8.47 210.48-6.7 211.53-5.51 212.58-4.33 214.03-3.74 215.48-3.15 217.28-3.15L217.28-3.15Q218.96-3.15 220.17-3.54 221.38-3.93 222.26-4.38 223.13-4.83 223.72-5.21 224.31-5.6 224.73-5.6L224.73-5.6Q225.28-5.6 225.58-5.18L225.58-5.18 226.83-3.55Q226.01-2.55 224.86-1.81 223.71-1.07 222.39-0.6 221.08-0.13 219.68 0.11 218.28 0.35 216.91 0.35L216.91 0.35Q214.28 0.35 212.07-0.54 209.86-1.43 208.24-3.14 206.63-4.85 205.73-7.38 204.83-9.9 204.83-13.18L204.83-13.18Q204.83-15.83 205.64-18.13 206.46-20.43 207.98-22.11 209.51-23.8 211.71-24.76 213.91-25.73 216.66-25.73ZM216.76-22.45L216.76-22.45Q213.53-22.45 211.68-20.59 209.83-18.73 209.38-15.43L209.38-15.43 223.16-15.43Q223.16-16.98 222.73-18.26 222.31-19.55 221.48-20.49 220.66-21.43 219.47-21.94 218.28-22.45 216.76-22.45ZM233.33-36.83L237.78-36.83 237.78 0 233.33 0 233.33-36.83ZM246.13-25.33L250.58-25.33 250.58 0 246.13 0 246.13-25.33ZM251.58-33.27L251.58-33.27Q251.58-32.63 251.31-32.06 251.05-31.5 250.61-31.06 250.18-30.63 249.6-30.38 249.03-30.13 248.38-30.13L248.38-30.13Q247.73-30.13 247.16-30.38 246.6-30.63 246.16-31.06 245.73-31.5 245.48-32.06 245.23-32.63 245.23-33.27L245.23-33.27Q245.23-33.93 245.48-34.51 245.73-35.1 246.16-35.54 246.6-35.98 247.16-36.23 247.73-36.48 248.38-36.48L248.38-36.48Q249.03-36.48 249.6-36.23 250.18-35.98 250.61-35.54 251.05-35.1 251.31-34.51 251.58-33.93 251.58-33.27ZM268.45-25.73L268.45-25.73Q270.72-25.73 272.65-24.96 274.57-24.2 275.97-22.76 277.37-21.33 278.16-19.21 278.95-17.1 278.95-14.4L278.95-14.4Q278.95-13.35 278.72-13 278.5-12.65 277.87-12.65L277.87-12.65 261.02-12.65Q261.07-10.25 261.67-8.47 262.27-6.7 263.32-5.51 264.37-4.33 265.82-3.74 267.27-3.15 269.07-3.15L269.07-3.15Q270.75-3.15 271.96-3.54 273.17-3.93 274.05-4.38 274.92-4.83 275.51-5.21 276.1-5.6 276.52-5.6L276.52-5.6Q277.07-5.6 277.37-5.18L277.37-5.18 278.62-3.55Q277.8-2.55 276.65-1.81 275.5-1.07 274.19-0.6 272.87-0.13 271.47 0.11 270.07 0.35 268.7 0.35L268.7 0.35Q266.07 0.35 263.86-0.54 261.65-1.43 260.04-3.14 258.42-4.85 257.52-7.38 256.62-9.9 256.62-13.18L256.62-13.18Q256.62-15.83 257.44-18.13 258.25-20.43 259.77-22.11 261.3-23.8 263.5-24.76 265.7-25.73 268.45-25.73ZM268.55-22.45L268.55-22.45Q265.32-22.45 263.47-20.59 261.62-18.73 261.17-15.43L261.17-15.43 274.95-15.43Q274.95-16.98 274.52-18.26 274.1-19.55 273.27-20.49 272.45-21.43 271.26-21.94 270.07-22.45 268.55-22.45ZM291.1 0L280.77-25.33 284.42-25.33Q284.95-25.33 285.3-25.05 285.65-24.78 285.8-24.4L285.8-24.4 292.22-8.1Q292.57-7.2 292.77-6.3 292.97-5.4 293.15-4.53L293.15-4.53Q293.35-5.4 293.57-6.3 293.8-7.2 294.15-8.1L294.15-8.1 300.65-24.4Q300.8-24.8 301.13-25.06 301.47-25.33 301.97-25.33L301.97-25.33 305.45-25.33 295.12 0 291.1 0ZM318.94-25.73L318.94-25.73Q321.22-25.73 323.14-24.96 325.07-24.2 326.47-22.76 327.87-21.33 328.66-19.21 329.44-17.1 329.44-14.4L329.44-14.4Q329.44-13.35 329.22-13 328.99-12.65 328.37-12.65L328.37-12.65 311.52-12.65Q311.57-10.25 312.17-8.47 312.77-6.7 313.82-5.51 314.87-4.33 316.32-3.74 317.77-3.15 319.57-3.15L319.57-3.15Q321.24-3.15 322.46-3.54 323.67-3.93 324.54-4.38 325.42-4.83 326.01-5.21 326.59-5.6 327.02-5.6L327.02-5.6Q327.57-5.6 327.87-5.18L327.87-5.18 329.12-3.55Q328.29-2.55 327.14-1.81 325.99-1.07 324.68-0.6 323.37-0.13 321.97 0.11 320.57 0.35 319.19 0.35L319.19 0.35Q316.57 0.35 314.36-0.54 312.14-1.43 310.53-3.14 308.92-4.85 308.02-7.38 307.12-9.9 307.12-13.18L307.12-13.18Q307.12-15.83 307.93-18.13 308.74-20.43 310.27-22.11 311.79-23.8 313.99-24.76 316.19-25.73 318.94-25.73ZM319.04-22.45L319.04-22.45Q315.82-22.45 313.97-20.59 312.12-18.73 311.67-15.43L311.67-15.43 325.44-15.43Q325.44-16.98 325.02-18.26 324.59-19.55 323.77-20.49 322.94-21.43 321.76-21.94 320.57-22.45 319.04-22.45ZM333.82-3.08L333.82-3.08Q333.82-3.65 334.03-4.16 334.24-4.67 334.63-5.06 335.02-5.45 335.57-5.68 336.12-5.9 336.77-5.9L336.77-5.9Q337.52-5.9 338.1-5.63 338.69-5.35 339.08-4.86 339.47-4.38 339.67-3.74 339.87-3.1 339.87-2.35L339.87-2.35Q339.87-1.23 339.54-0.01 339.22 1.2 338.62 2.39 338.02 3.58 337.13 4.7 336.24 5.83 335.12 6.78L335.12 6.78 334.37 6.05Q334.04 5.75 334.04 5.35L334.04 5.35Q334.04 5.03 334.39 4.67L334.39 4.67Q334.64 4.4 335.03 3.94 335.42 3.48 335.82 2.88 336.22 2.27 336.55 1.55 336.89 0.83 337.04 0L337.04 0 336.72 0Q336.07 0 335.54-0.23 335.02-0.45 334.63-0.86 334.24-1.28 334.03-1.84 333.82-2.4 333.82-3.08ZM371.21-35.83L385.54 0 381.79 0Q381.14 0 380.74-0.33 380.34-0.65 380.14-1.15L380.14-1.15 376.79-9.8 360.71-9.8 357.36-1.15Q357.19-0.7 356.76-0.35 356.34 0 355.71 0L355.71 0 351.96 0 366.29-35.83 371.21-35.83ZM367.69-27.85L362.06-13.3 375.44-13.3 369.81-27.88Q369.26-29.23 368.74-31.25L368.74-31.25Q368.46-30.23 368.2-29.36 367.94-28.5 367.69-27.85L367.69-27.85ZM407.81-22.43L406.63-20.83Q406.43-20.55 406.23-20.4 406.03-20.25 405.66-20.25L405.66-20.25Q405.28-20.25 404.85-20.56 404.41-20.88 403.73-21.25 403.06-21.63 402.1-21.94 401.13-22.25 399.73-22.25L399.73-22.25Q397.88-22.25 396.46-21.59 395.03-20.93 394.07-19.68 393.11-18.43 392.62-16.65 392.13-14.88 392.13-12.68L392.13-12.68Q392.13-10.38 392.66-8.59 393.18-6.8 394.13-5.59 395.08-4.38 396.45-3.74 397.81-3.1 399.51-3.1L399.51-3.1Q401.13-3.1 402.18-3.49 403.23-3.88 403.93-4.35 404.63-4.83 405.08-5.21 405.53-5.6 405.98-5.6L405.98-5.6Q406.56-5.6 406.83-5.18L406.83-5.18 408.08-3.55Q406.43-1.53 403.96-0.59 401.48 0.35 398.73 0.35L398.73 0.35Q396.36 0.35 394.32-0.53 392.28-1.4 390.78-3.06 389.28-4.73 388.42-7.15 387.56-9.58 387.56-12.68L387.56-12.68Q387.56-15.5 388.35-17.9 389.13-20.3 390.65-22.04 392.16-23.78 394.38-24.75 396.61-25.73 399.48-25.73L399.48-25.73Q402.13-25.73 404.18-24.86 406.23-24 407.81-22.43L407.81-22.43ZM417.16 0L412.71 0 412.71-36.83 417.16-36.83 417.16-21.93Q418.78-23.65 420.76-24.69 422.73-25.73 425.31-25.73L425.31-25.73Q427.38-25.73 428.97-25.04 430.56-24.35 431.62-23.09 432.68-21.83 433.23-20.05 433.78-18.28 433.78-16.13L433.78-16.13 433.78 0 429.33 0 429.33-16.13Q429.33-19 428.02-20.59 426.71-22.18 424.01-22.18L424.01-22.18Q422.03-22.18 420.32-21.23 418.61-20.28 417.16-18.65L417.16-18.65 417.16 0ZM441-25.33L445.45-25.33 445.45 0 441 0 441-25.33ZM446.45-33.27L446.45-33.27Q446.45-32.63 446.19-32.06 445.93-31.5 445.49-31.06 445.05-30.63 444.48-30.38 443.9-30.13 443.25-30.13L443.25-30.13Q442.6-30.13 442.04-30.38 441.48-30.63 441.04-31.06 440.6-31.5 440.35-32.06 440.1-32.63 440.1-33.27L440.1-33.27Q440.1-33.93 440.35-34.51 440.6-35.1 441.04-35.54 441.48-35.98 442.04-36.23 442.6-36.48 443.25-36.48L443.25-36.48Q443.9-36.48 444.48-36.23 445.05-35.98 445.49-35.54 445.93-35.1 446.19-34.51 446.45-33.93 446.45-33.27ZM463.33-25.73L463.33-25.73Q465.6-25.73 467.53-24.96 469.45-24.2 470.85-22.76 472.25-21.33 473.04-19.21 473.83-17.1 473.83-14.4L473.83-14.4Q473.83-13.35 473.6-13 473.38-12.65 472.75-12.65L472.75-12.65 455.9-12.65Q455.95-10.25 456.55-8.47 457.15-6.7 458.2-5.51 459.25-4.33 460.7-3.74 462.15-3.15 463.95-3.15L463.95-3.15Q465.63-3.15 466.84-3.54 468.05-3.93 468.93-4.38 469.8-4.83 470.39-5.21 470.98-5.6 471.4-5.6L471.4-5.6Q471.95-5.6 472.25-5.18L472.25-5.18 473.5-3.55Q472.68-2.55 471.53-1.81 470.38-1.07 469.06-0.6 467.75-0.13 466.35 0.11 464.95 0.35 463.58 0.35L463.58 0.35Q460.95 0.35 458.74-0.54 456.53-1.43 454.91-3.14 453.3-4.85 452.4-7.38 451.5-9.9 451.5-13.18L451.5-13.18Q451.5-15.83 452.31-18.13 453.13-20.43 454.65-22.11 456.18-23.8 458.38-24.76 460.58-25.73 463.33-25.73ZM463.43-22.45L463.43-22.45Q460.2-22.45 458.35-20.59 456.5-18.73 456.05-15.43L456.05-15.43 469.83-15.43Q469.83-16.98 469.4-18.26 468.98-19.55 468.15-20.49 467.33-21.43 466.14-21.94 464.95-22.45 463.43-22.45ZM485.97 0L475.65-25.33 479.3-25.33Q479.82-25.33 480.17-25.05 480.52-24.78 480.67-24.4L480.67-24.4 487.1-8.1Q487.45-7.2 487.65-6.3 487.85-5.4 488.02-4.53L488.02-4.53Q488.22-5.4 488.45-6.3 488.67-7.2 489.02-8.1L489.02-8.1 495.52-24.4Q495.67-24.8 496.01-25.06 496.35-25.33 496.85-25.33L496.85-25.33 500.32-25.33 490 0 485.97 0ZM513.82-25.73L513.82-25.73Q516.1-25.73 518.02-24.96 519.95-24.2 521.35-22.76 522.75-21.33 523.53-19.21 524.32-17.1 524.32-14.4L524.32-14.4Q524.32-13.35 524.1-13 523.87-12.65 523.25-12.65L523.25-12.65 506.4-12.65Q506.45-10.25 507.05-8.47 507.65-6.7 508.7-5.51 509.75-4.33 511.2-3.74 512.65-3.15 514.45-3.15L514.45-3.15Q516.12-3.15 517.33-3.54 518.55-3.93 519.42-4.38 520.3-4.83 520.88-5.21 521.47-5.6 521.9-5.6L521.9-5.6Q522.45-5.6 522.75-5.18L522.75-5.18 524-3.55Q523.17-2.55 522.02-1.81 520.87-1.07 519.56-0.6 518.25-0.13 516.85 0.11 515.45 0.35 514.07 0.35L514.07 0.35Q511.45 0.35 509.23-0.54 507.02-1.43 505.41-3.14 503.8-4.85 502.9-7.38 502-9.9 502-13.18L502-13.18Q502-15.83 502.81-18.13 503.62-20.43 505.15-22.11 506.67-23.8 508.87-24.76 511.07-25.73 513.82-25.73ZM513.92-22.45L513.92-22.45Q510.7-22.45 508.85-20.59 507-18.73 506.55-15.43L506.55-15.43 520.32-15.43Q520.32-16.98 519.9-18.26 519.47-19.55 518.65-20.49 517.82-21.43 516.63-21.94 515.45-22.45 513.92-22.45Z" opacity="1" transform="matrix(1,0,0,1,0,0)" fill="#f689a0" class="slogan-text-1" data-fill-palette-color="secondary" id="text-1"></path></svg></g></svg></g></svg></g></svg></g></svg></g><defs></defs></svg><rect width="395.52" height="88.05768314669369" fill="none" stroke="none" visibility="hidden"></rect></g></svg></g></svg>